<svg xmlns="http://www.w3.org/2000/svg" xmlns:xlink="http://www.w3.org/1999/xlink" width="500" zoomAndPan="magnify" viewBox="0 0 375 374.999991" height="500" preserveAspectRatio="xMidYMid meet" version="1.2"><defs><clipPath id="127dc67976"><path d="M 0 83.777344 L 375 83.777344 L 375 302 L 0 302 Z M 0 83.777344 "/></clipPath><clipPath id="e41676a939"><path d="M 193.609375 239.601562 L 219.355469 239.601562 L 219.355469 263.519531 L 193.609375 263.519531 Z M 193.609375 239.601562 "/></clipPath><clipPath id="582bf8d815"><path d="M 237.234375 211.710938 L 264.117188 211.710938 L 264.117188 258.914062 L 237.234375 258.914062 Z M 237.234375 211.710938 "/></clipPath><clipPath id="c583efcaff"><path d="M 181 125.894531 L 195 125.894531 L 195 141 L 181 141 Z M 181 125.894531 "/></clipPath></defs><g id="295635a7a3"><path style=" stroke:none;fill-rule:nonzero;fill:#f2f7ef;fill-opacity:0.71;" d="M 293.085938 293.421875 C 293.425781 294.027344 293.742188 294.648438 294.023438 295.28125 C 294.308594 295.914062 294.5625 296.5625 294.78125 297.21875 C 295.003906 297.878906 295.195312 298.546875 295.355469 299.222656 C 295.511719 299.898438 295.640625 300.582031 295.734375 301.269531 C 295.828125 301.960938 295.886719 302.652344 295.914062 303.347656 C 295.945312 304.039062 295.9375 304.734375 295.902344 305.429688 C 295.863281 306.121094 295.792969 306.8125 295.6875 307.5 C 295.585938 308.1875 295.449219 308.867188 295.28125 309.542969 C 295.113281 310.214844 294.910156 310.882812 294.679688 311.535156 C 294.449219 312.191406 294.1875 312.835938 293.894531 313.464844 C 293.601562 314.09375 293.277344 314.710938 292.925781 315.308594 C 292.578125 315.910156 292.199219 316.492188 291.789062 317.054688 C 291.382812 317.617188 290.953125 318.160156 290.492188 318.683594 C 290.035156 319.207031 289.554688 319.707031 289.046875 320.183594 C 288.542969 320.660156 288.015625 321.113281 287.464844 321.539062 C 286.917969 321.964844 286.347656 322.363281 285.761719 322.738281 C 281.96875 324.640625 278.125 326.4375 274.226562 328.117188 C 270.332031 329.800781 266.386719 331.371094 262.398438 332.824219 C 258.410156 334.277344 254.382812 335.613281 250.320312 336.835938 C 246.253906 338.054688 242.15625 339.15625 238.027344 340.140625 C 233.898438 341.121094 229.742188 341.984375 225.5625 342.726562 C 221.382812 343.46875 217.1875 344.089844 212.96875 344.585938 C 208.753906 345.085938 204.527344 345.460938 200.292969 345.714844 C 196.054688 345.96875 191.8125 346.097656 187.566406 346.105469 C 183.324219 346.113281 179.082031 345.996094 174.84375 345.757812 C 170.605469 345.519531 166.378906 345.160156 162.160156 344.675781 C 157.941406 344.191406 153.742188 343.585938 149.5625 342.859375 C 145.378906 342.128906 141.222656 341.28125 137.089844 340.3125 C 132.957031 339.347656 128.855469 338.257812 124.785156 337.050781 C 120.714844 335.847656 116.683594 334.523438 112.691406 333.082031 C 108.699219 331.644531 104.75 330.089844 100.847656 328.417969 C 96.945312 326.75 93.09375 324.96875 89.292969 323.078125 C 88.703125 322.707031 88.136719 322.308594 87.585938 321.882812 C 87.035156 321.460938 86.507812 321.011719 86 320.535156 C 85.492188 320.058594 85.007812 319.5625 84.546875 319.042969 C 84.085938 318.519531 83.652344 317.980469 83.246094 317.417969 C 82.835938 316.855469 82.457031 316.273438 82.101562 315.675781 C 81.75 315.078125 81.425781 314.464844 81.128906 313.835938 C 80.835938 313.203125 80.570312 312.5625 80.335938 311.910156 C 80.101562 311.253906 79.898438 310.589844 79.730469 309.917969 C 79.558594 309.242188 79.421875 308.5625 79.3125 307.875 C 79.207031 307.1875 79.136719 306.5 79.09375 305.804688 C 79.054688 305.109375 79.046875 304.417969 79.070312 303.722656 C 79.097656 303.027344 79.15625 302.335938 79.246094 301.648438 C 79.339844 300.957031 79.464844 300.273438 79.621094 299.597656 C 79.777344 298.921875 79.964844 298.253906 80.183594 297.59375 C 80.402344 296.933594 80.652344 296.285156 80.9375 295.652344 C 81.21875 295.015625 81.527344 294.394531 81.867188 293.789062 C 82.226562 293.132812 82.617188 292.5 83.039062 291.882812 C 83.460938 291.269531 83.914062 290.675781 84.394531 290.105469 C 84.878906 289.539062 85.390625 288.996094 85.929688 288.476562 C 86.464844 287.960938 87.03125 287.472656 87.617188 287.015625 C 88.207031 286.554688 88.816406 286.125 89.449219 285.730469 C 90.078125 285.332031 90.730469 284.96875 91.398438 284.636719 C 92.066406 284.308594 92.75 284.011719 93.449219 283.75 C 94.148438 283.488281 94.859375 283.265625 95.582031 283.078125 C 96.304688 282.886719 97.035156 282.738281 97.773438 282.625 C 98.511719 282.511719 99.25 282.433594 99.996094 282.394531 C 100.742188 282.359375 101.488281 282.359375 102.234375 282.394531 C 102.976562 282.433594 103.71875 282.511719 104.457031 282.625 C 105.195312 282.738281 105.925781 282.890625 106.644531 283.078125 C 107.367188 283.265625 108.078125 283.492188 108.777344 283.75 C 109.476562 284.011719 110.160156 284.308594 110.832031 284.640625 C 111.5 284.96875 112.148438 285.332031 112.78125 285.730469 C 118.609375 288.453125 124.570312 290.851562 130.664062 292.921875 C 136.757812 294.992188 142.945312 296.71875 149.226562 298.109375 C 155.507812 299.5 161.847656 300.542969 168.246094 301.234375 C 174.640625 301.929688 181.058594 302.269531 187.492188 302.257812 C 193.925781 302.246094 200.339844 301.882812 206.734375 301.167969 C 213.128906 300.453125 219.464844 299.386719 225.742188 297.976562 C 232.019531 296.566406 238.203125 294.8125 244.285156 292.722656 C 250.371094 290.632812 256.324219 288.214844 262.144531 285.472656 C 262.773438 285.074219 263.425781 284.707031 264.089844 284.375 C 264.757812 284.039062 265.441406 283.742188 266.140625 283.476562 C 266.839844 283.214844 267.550781 282.988281 268.269531 282.796875 C 268.992188 282.605469 269.722656 282.453125 270.457031 282.335938 C 271.195312 282.21875 271.9375 282.140625 272.679688 282.101562 C 273.425781 282.058594 274.171875 282.058594 274.917969 282.09375 C 275.664062 282.128906 276.40625 282.203125 277.140625 282.3125 C 277.878906 282.421875 278.609375 282.570312 279.332031 282.757812 C 280.054688 282.945312 280.769531 283.164062 281.46875 283.425781 C 282.167969 283.683594 282.851562 283.976562 283.523438 284.304688 C 284.195312 284.632812 284.84375 284.992188 285.476562 285.390625 C 286.113281 285.785156 286.722656 286.210938 287.3125 286.667969 C 287.902344 287.125 288.46875 287.609375 289.007812 288.125 C 289.546875 288.640625 290.058594 289.183594 290.542969 289.75 C 291.03125 290.316406 291.484375 290.90625 291.910156 291.519531 C 292.332031 292.136719 292.726562 292.769531 293.085938 293.421875 Z M 293.085938 293.421875 "/><g style="fill:#1b2e0d;fill-opacity:1;"><g transform="translate(93.728307, 309.364729)"><path style="stroke:none" d="M 29.09375 -5 C 29.238281 -4.925781 29.332031 -4.859375 29.375 -4.796875 C 29.425781 -4.742188 29.425781 -4.671875 29.375 -4.578125 C 29.332031 -4.484375 29.195312 -4.316406 28.96875 -4.078125 L 16.84375 6.984375 C 16.695312 7.109375 16.566406 7.175781 16.453125 7.1875 C 16.347656 7.195312 16.203125 7.160156 16.015625 7.078125 L 13.546875 5.984375 C 13.335938 5.890625 13.191406 5.796875 13.109375 5.703125 C 13.035156 5.609375 13.03125 5.472656 13.09375 5.296875 L 15.390625 -3.265625 C 15.421875 -3.378906 15.421875 -3.441406 15.390625 -3.453125 C 15.359375 -3.460938 15.285156 -3.429688 15.171875 -3.359375 L 8.140625 3.140625 C 7.984375 3.265625 7.851562 3.332031 7.75 3.34375 C 7.644531 3.351562 7.488281 3.3125 7.28125 3.21875 L 4.6875 2.078125 C 4.5 1.984375 4.375 1.882812 4.3125 1.78125 C 4.25 1.675781 4.242188 1.539062 4.296875 1.375 L 8.21875 -13.484375 C 8.21875 -13.515625 8.238281 -13.570312 8.28125 -13.65625 C 8.40625 -13.957031 8.648438 -14.03125 9.015625 -13.875 L 11.96875 -12.5625 C 12.300781 -12.414062 12.421875 -12.171875 12.328125 -11.828125 L 9.890625 -3.125 C 9.847656 -2.957031 9.847656 -2.863281 9.890625 -2.84375 C 9.941406 -2.8125 10.015625 -2.859375 10.109375 -2.984375 L 17.40625 -9.8125 C 17.488281 -9.90625 17.578125 -9.953125 17.671875 -9.953125 C 17.773438 -9.960938 17.914062 -9.929688 18.09375 -9.859375 L 20.6875 -8.703125 C 20.851562 -8.628906 20.945312 -8.539062 20.96875 -8.4375 C 20.988281 -8.34375 20.976562 -8.207031 20.9375 -8.03125 L 18.5 0.875 C 18.457031 0.96875 18.460938 1.023438 18.515625 1.046875 C 18.578125 1.066406 18.65625 1.023438 18.75 0.921875 L 26 -6 C 26.09375 -6.101562 26.1875 -6.15625 26.28125 -6.15625 C 26.375 -6.164062 26.515625 -6.128906 26.703125 -6.046875 Z M 29.09375 -5 "/></g></g><g style="fill:#1b2e0d;fill-opacity:1;"><g transform="translate(116.567908, 319.220155)"><path style="stroke:none" d="M 0 0 C -0.144531 -0.0507812 -0.195312 -0.144531 -0.15625 -0.28125 C -0.113281 -0.414062 0.0078125 -0.59375 0.21875 -0.8125 L 12.03125 -12.890625 C 12.144531 -13.003906 12.265625 -13.066406 12.390625 -13.078125 C 12.515625 -13.097656 12.675781 -13.078125 12.875 -13.015625 L 16.515625 -11.84375 C 16.671875 -11.789062 16.765625 -11.695312 16.796875 -11.5625 C 16.835938 -11.4375 16.847656 -11.269531 16.828125 -11.0625 L 15.265625 4.3125 C 15.273438 4.375 15.265625 4.441406 15.234375 4.515625 C 15.160156 4.753906 15.015625 4.835938 14.796875 4.765625 L 11.203125 3.609375 C 11.023438 3.546875 10.945312 3.363281 10.96875 3.0625 L 11.265625 0.21875 C 11.273438 0.132812 11.265625 0.0703125 11.234375 0.03125 C 11.203125 0 11.148438 -0.03125 11.078125 -0.0625 L 6.34375 -1.578125 C 6.1875 -1.628906 6.039062 -1.582031 5.90625 -1.4375 L 3.5625 0.9375 C 3.5 0.988281 3.429688 1.019531 3.359375 1.03125 C 3.296875 1.039062 3.195312 1.023438 3.0625 0.984375 Z M 11.5625 -3.40625 C 11.78125 -3.34375 11.90625 -3.457031 11.9375 -3.75 L 12.359375 -8.140625 C 12.390625 -8.296875 12.363281 -8.382812 12.28125 -8.40625 C 12.21875 -8.425781 12.132812 -8.382812 12.03125 -8.28125 L 8.609375 -4.75 C 8.535156 -4.65625 8.492188 -4.582031 8.484375 -4.53125 C 8.453125 -4.457031 8.507812 -4.394531 8.65625 -4.34375 Z M 11.5625 -3.40625 "/></g></g><g style="fill:#1b2e0d;fill-opacity:1;"><g transform="translate(133.578695, 324.63123)"><path style="stroke:none" d="M 14.421875 -9.34375 C 14.171875 -9.707031 13.816406 -10.050781 13.359375 -10.375 C 12.898438 -10.707031 12.320312 -10.957031 11.625 -11.125 C 10.820312 -11.3125 10.144531 -11.3125 9.59375 -11.125 C 9.050781 -10.945312 8.722656 -10.601562 8.609375 -10.09375 C 8.484375 -9.539062 8.847656 -8.984375 9.703125 -8.421875 L 12.78125 -6.53125 C 13.820312 -5.90625 14.546875 -5.234375 14.953125 -4.515625 C 15.359375 -3.804688 15.457031 -3.015625 15.25 -2.140625 C 14.96875 -0.960938 14.410156 -0.0234375 13.578125 0.671875 C 12.742188 1.378906 11.726562 1.820312 10.53125 2 C 9.332031 2.175781 8.046875 2.109375 6.671875 1.796875 C 5.097656 1.421875 3.828125 0.84375 2.859375 0.0625 C 1.898438 -0.707031 1.273438 -1.625 0.984375 -2.6875 C 0.953125 -2.851562 0.941406 -2.972656 0.953125 -3.046875 C 0.972656 -3.117188 1.054688 -3.1875 1.203125 -3.25 L 3.484375 -4 C 3.640625 -4.039062 3.753906 -4.050781 3.828125 -4.03125 C 4.003906 -3.988281 4.148438 -3.84375 4.265625 -3.59375 C 4.546875 -3.082031 4.804688 -2.671875 5.046875 -2.359375 C 5.296875 -2.046875 5.625 -1.773438 6.03125 -1.546875 C 6.445312 -1.328125 7.007812 -1.132812 7.71875 -0.96875 C 8.488281 -0.78125 9.15625 -0.765625 9.71875 -0.921875 C 10.289062 -1.085938 10.644531 -1.472656 10.78125 -2.078125 C 10.851562 -2.398438 10.789062 -2.691406 10.59375 -2.953125 C 10.40625 -3.222656 10.085938 -3.5 9.640625 -3.78125 L 6.734375 -5.515625 C 5.753906 -6.085938 5.054688 -6.785156 4.640625 -7.609375 C 4.234375 -8.429688 4.132812 -9.289062 4.34375 -10.1875 C 4.59375 -11.257812 5.128906 -12.140625 5.953125 -12.828125 C 6.773438 -13.515625 7.757812 -13.960938 8.90625 -14.171875 C 10.0625 -14.390625 11.25 -14.359375 12.46875 -14.078125 C 13.738281 -13.773438 14.816406 -13.28125 15.703125 -12.59375 C 16.597656 -11.90625 17.226562 -11.164062 17.59375 -10.375 C 17.65625 -10.175781 17.675781 -10.039062 17.65625 -9.96875 C 17.644531 -9.894531 17.582031 -9.832031 17.46875 -9.78125 L 14.9375 -8.890625 C 14.875 -8.878906 14.832031 -8.875 14.8125 -8.875 C 14.726562 -8.894531 14.644531 -8.96875 14.5625 -9.09375 C 14.488281 -9.226562 14.441406 -9.3125 14.421875 -9.34375 Z M 14.421875 -9.34375 "/></g></g><g style="fill:#1b2e0d;fill-opacity:1;"><g transform="translate(148.894572, 328.196753)"><path style="stroke:none" d="M 4.515625 -15.484375 C 4.566406 -15.609375 4.625 -15.6875 4.6875 -15.71875 C 4.75 -15.757812 4.863281 -15.769531 5.03125 -15.75 L 17.953125 -13.75 C 18.117188 -13.726562 18.21875 -13.6875 18.25 -13.625 C 18.28125 -13.570312 18.28125 -13.476562 18.25 -13.34375 L 17.484375 -10.875 C 17.453125 -10.78125 17.40625 -10.71875 17.34375 -10.6875 C 17.28125 -10.65625 17.1875 -10.648438 17.0625 -10.671875 L 13.109375 -11.28125 C 12.972656 -11.300781 12.878906 -11.296875 12.828125 -11.265625 C 12.773438 -11.234375 12.722656 -11.140625 12.671875 -10.984375 L 9.046875 1 C 8.984375 1.257812 8.835938 1.367188 8.609375 1.328125 L 5 0.765625 C 4.851562 0.742188 4.753906 0.703125 4.703125 0.640625 C 4.648438 0.578125 4.628906 0.488281 4.640625 0.375 C 4.648438 0.300781 4.664062 0.234375 4.6875 0.171875 L 8.3125 -11.75 L 8.328125 -11.8125 C 8.347656 -11.945312 8.285156 -12.023438 8.140625 -12.046875 L 4.078125 -12.6875 C 3.953125 -12.707031 3.863281 -12.738281 3.8125 -12.78125 C 3.769531 -12.832031 3.769531 -12.925781 3.8125 -13.0625 Z M 4.515625 -15.484375 "/></g></g><g style="fill:#1b2e0d;fill-opacity:1;"><g transform="translate(164.494495, 330.572908)"><path style="stroke:none" d="M 4 -15.703125 C 4.039062 -15.867188 4.078125 -15.96875 4.109375 -16 C 4.148438 -16.03125 4.238281 -16.039062 4.375 -16.03125 L 15.921875 -15.140625 C 16.117188 -15.117188 16.210938 -14.988281 16.203125 -14.75 C 16.191406 -14.675781 16.179688 -14.617188 16.171875 -14.578125 L 15.65625 -12.328125 C 15.613281 -12.160156 15.554688 -12.050781 15.484375 -12 C 15.410156 -11.945312 15.285156 -11.925781 15.109375 -11.9375 L 8.15625 -12.484375 C 8.019531 -12.492188 7.921875 -12.472656 7.859375 -12.421875 C 7.804688 -12.378906 7.757812 -12.289062 7.71875 -12.15625 L 7.140625 -9.5625 L 7.125 -9.4375 C 7.113281 -9.363281 7.125 -9.316406 7.15625 -9.296875 C 7.195312 -9.273438 7.269531 -9.257812 7.375 -9.25 L 11.828125 -8.90625 C 11.953125 -8.894531 12.03125 -8.859375 12.0625 -8.796875 C 12.09375 -8.742188 12.097656 -8.648438 12.078125 -8.515625 L 11.5 -6.015625 C 11.476562 -5.890625 11.445312 -5.816406 11.40625 -5.796875 C 11.375 -5.773438 11.289062 -5.769531 11.15625 -5.78125 L 6.640625 -6.125 C 6.535156 -6.132812 6.460938 -6.113281 6.421875 -6.0625 C 6.378906 -6.019531 6.335938 -5.929688 6.296875 -5.796875 L 5.6875 -3.0625 L 5.6875 -2.96875 C 5.675781 -2.851562 5.722656 -2.789062 5.828125 -2.78125 L 13.265625 -2.203125 C 13.398438 -2.191406 13.484375 -2.15625 13.515625 -2.09375 C 13.554688 -2.03125 13.5625 -1.925781 13.53125 -1.78125 L 13.015625 0.6875 C 12.972656 0.820312 12.921875 0.90625 12.859375 0.9375 C 12.804688 0.976562 12.703125 0.992188 12.546875 0.984375 L 1.078125 0.078125 C 0.742188 0.0546875 0.585938 -0.0976562 0.609375 -0.390625 L 0.640625 -0.5625 Z M 4 -15.703125 "/></g></g><g style="fill:#1b2e0d;fill-opacity:1;"><g transform="translate(179.380186, 331.606853)"><path style="stroke:none" d=""/></g></g><g style="fill:#1b2e0d;fill-opacity:1;"><g transform="translate(184.002381, 331.743894)"><path style="stroke:none" d=""/></g></g><g style="fill:#1b2e0d;fill-opacity:1;"><g transform="translate(188.626483, 331.776833)"><path style="stroke:none" d=""/></g></g><g style="fill:#1b2e0d;fill-opacity:1;"><g transform="translate(193.623309, 332.037736)"><path style="stroke:none" d="M 23.078125 -18.40625 C 23.242188 -18.414062 23.359375 -18.40625 23.421875 -18.375 C 23.492188 -18.34375 23.535156 -18.273438 23.546875 -18.171875 C 23.546875 -18.066406 23.503906 -17.851562 23.421875 -17.53125 L 18.140625 -2.015625 C 18.066406 -1.828125 17.984375 -1.703125 17.890625 -1.640625 C 17.796875 -1.578125 17.648438 -1.539062 17.453125 -1.53125 L 14.75 -1.28125 C 14.519531 -1.269531 14.347656 -1.285156 14.234375 -1.328125 C 14.128906 -1.378906 14.066406 -1.492188 14.046875 -1.671875 L 11.921875 -10.28125 C 11.878906 -10.394531 11.84375 -10.453125 11.8125 -10.453125 C 11.78125 -10.441406 11.734375 -10.378906 11.671875 -10.265625 L 8.65625 -1.1875 C 8.570312 -1 8.484375 -0.875 8.390625 -0.8125 C 8.304688 -0.75 8.15625 -0.707031 7.9375 -0.6875 L 5.109375 -0.453125 C 4.898438 -0.429688 4.742188 -0.453125 4.640625 -0.515625 C 4.535156 -0.578125 4.457031 -0.695312 4.40625 -0.875 L 0.6875 -15.75 C 0.6875 -15.789062 0.679688 -15.859375 0.671875 -15.953125 C 0.640625 -16.273438 0.816406 -16.457031 1.203125 -16.5 L 4.4375 -16.78125 C 4.789062 -16.8125 5.003906 -16.648438 5.078125 -16.296875 L 7.15625 -7.484375 C 7.195312 -7.328125 7.238281 -7.25 7.28125 -7.25 C 7.34375 -7.25 7.390625 -7.328125 7.421875 -7.484375 L 10.515625 -16.984375 C 10.546875 -17.109375 10.601562 -17.195312 10.6875 -17.25 C 10.769531 -17.300781 10.910156 -17.335938 11.109375 -17.359375 L 13.921875 -17.609375 C 14.109375 -17.617188 14.234375 -17.582031 14.296875 -17.5 C 14.359375 -17.425781 14.414062 -17.300781 14.46875 -17.125 L 16.625 -8.15625 C 16.632812 -8.050781 16.671875 -8.003906 16.734375 -8.015625 C 16.796875 -8.015625 16.847656 -8.085938 16.890625 -8.234375 L 19.890625 -17.796875 C 19.921875 -17.921875 19.972656 -18.007812 20.046875 -18.0625 C 20.128906 -18.125 20.273438 -18.160156 20.484375 -18.171875 Z M 23.078125 -18.40625 "/></g></g><g style="fill:#1b2e0d;fill-opacity:1;"><g transform="translate(218.384078, 329.65627)"><path style="stroke:none" d="M 0 0 C -0.15625 0.03125 -0.25 -0.0234375 -0.28125 -0.171875 C -0.300781 -0.304688 -0.273438 -0.519531 -0.203125 -0.8125 L 4.328125 -17.078125 C 4.367188 -17.242188 4.441406 -17.363281 4.546875 -17.4375 C 4.660156 -17.507812 4.8125 -17.566406 5 -17.609375 L 8.765625 -18.328125 C 8.929688 -18.359375 9.054688 -18.328125 9.140625 -18.234375 C 9.234375 -18.140625 9.320312 -18 9.40625 -17.8125 L 15.453125 -3.578125 C 15.484375 -3.535156 15.503906 -3.476562 15.515625 -3.40625 C 15.566406 -3.15625 15.484375 -3.003906 15.265625 -2.953125 L 11.546875 -2.234375 C 11.367188 -2.203125 11.21875 -2.320312 11.09375 -2.59375 L 9.953125 -5.234375 C 9.929688 -5.304688 9.898438 -5.351562 9.859375 -5.375 C 9.816406 -5.40625 9.753906 -5.410156 9.671875 -5.390625 L 4.796875 -4.453125 C 4.628906 -4.421875 4.519531 -4.304688 4.46875 -4.109375 L 3.578125 -0.90625 C 3.546875 -0.820312 3.503906 -0.757812 3.453125 -0.71875 C 3.398438 -0.675781 3.300781 -0.640625 3.15625 -0.609375 Z M 8.484375 -8.5625 C 8.710938 -8.613281 8.765625 -8.769531 8.640625 -9.03125 L 6.890625 -13.09375 C 6.847656 -13.226562 6.785156 -13.289062 6.703125 -13.28125 C 6.640625 -13.269531 6.585938 -13.191406 6.546875 -13.046875 L 5.265625 -8.3125 C 5.242188 -8.195312 5.238281 -8.109375 5.25 -8.046875 C 5.257812 -7.972656 5.335938 -7.953125 5.484375 -7.984375 Z M 8.484375 -8.5625 "/></g></g><g style="fill:#1b2e0d;fill-opacity:1;"><g transform="translate(235.897225, 326.194161)"><path style="stroke:none" d="M -2.296875 -15.96875 C -2.296875 -16.09375 -2.273438 -16.1875 -2.234375 -16.25 C -2.191406 -16.3125 -2.085938 -16.367188 -1.921875 -16.421875 L 10.671875 -19.953125 C 10.828125 -19.992188 10.925781 -19.992188 10.96875 -19.953125 C 11.019531 -19.921875 11.0625 -19.835938 11.09375 -19.703125 L 11.421875 -17.140625 C 11.429688 -17.035156 11.410156 -16.957031 11.359375 -16.90625 C 11.316406 -16.863281 11.234375 -16.820312 11.109375 -16.78125 L 7.25 -15.703125 C 7.125 -15.660156 7.046875 -15.613281 7.015625 -15.5625 C 6.984375 -15.507812 6.972656 -15.40625 6.984375 -15.25 L 8.640625 -2.828125 C 8.691406 -2.578125 8.609375 -2.421875 8.390625 -2.359375 L 4.875 -1.359375 C 4.726562 -1.328125 4.613281 -1.328125 4.53125 -1.359375 C 4.457031 -1.390625 4.40625 -1.457031 4.375 -1.5625 C 4.351562 -1.632812 4.34375 -1.703125 4.34375 -1.765625 L 2.703125 -14.140625 L 2.6875 -14.203125 C 2.65625 -14.335938 2.566406 -14.382812 2.421875 -14.34375 L -1.53125 -13.234375 C -1.65625 -13.203125 -1.75 -13.195312 -1.8125 -13.21875 C -1.882812 -13.238281 -1.925781 -13.320312 -1.9375 -13.46875 Z M -2.296875 -15.96875 "/></g></g><g style="fill:#1b2e0d;fill-opacity:1;"><g transform="translate(251.117117, 321.920785)"><path style="stroke:none" d="M 3.46875 -18.90625 C 4.582031 -19.320312 5.648438 -19.476562 6.671875 -19.375 C 7.703125 -19.269531 8.59375 -18.9375 9.34375 -18.375 C 10.101562 -17.8125 10.671875 -17.078125 11.046875 -16.171875 L 11.078125 -16.09375 C 11.160156 -15.84375 11.097656 -15.671875 10.890625 -15.578125 L 7.84375 -14.25 C 7.65625 -14.15625 7.472656 -14.304688 7.296875 -14.703125 C 6.660156 -16.035156 5.738281 -16.476562 4.53125 -16.03125 C 3.570312 -15.675781 2.9375 -15.015625 2.625 -14.046875 C 2.3125 -13.085938 2.226562 -12.035156 2.375 -10.890625 C 2.53125 -9.742188 2.796875 -8.660156 3.171875 -7.640625 C 3.535156 -6.628906 3.984375 -5.960938 4.515625 -5.640625 C 5.054688 -5.328125 5.707031 -5.3125 6.46875 -5.59375 C 8.113281 -6.195312 9.046875 -7.492188 9.265625 -9.484375 C 9.285156 -9.660156 9.375 -9.78125 9.53125 -9.84375 C 9.570312 -9.851562 9.65625 -9.863281 9.78125 -9.875 L 12.5 -10.203125 C 12.582031 -10.191406 12.640625 -10.140625 12.671875 -10.046875 C 12.710938 -9.941406 12.734375 -9.742188 12.734375 -9.453125 C 12.734375 -8.890625 12.566406 -8.148438 12.234375 -7.234375 C 11.910156 -6.328125 11.34375 -5.425781 10.53125 -4.53125 C 9.726562 -3.644531 8.660156 -2.957031 7.328125 -2.46875 C 6.035156 -1.988281 4.816406 -1.851562 3.671875 -2.0625 C 2.523438 -2.28125 1.519531 -2.796875 0.65625 -3.609375 C -0.195312 -4.421875 -0.863281 -5.484375 -1.34375 -6.796875 C -1.945312 -8.429688 -2.191406 -10.050781 -2.078125 -11.65625 C -1.960938 -13.269531 -1.4375 -14.722656 -0.5 -16.015625 C 0.425781 -17.316406 1.75 -18.28125 3.46875 -18.90625 Z M 3.46875 -18.90625 "/></g></g><g style="fill:#1b2e0d;fill-opacity:1;"><g transform="translate(266.758329, 316.153207)"><path style="stroke:none" d="M 2.796875 -8.734375 C 2.617188 -8.648438 2.570312 -8.46875 2.65625 -8.1875 L 4.34375 -2.53125 C 4.425781 -2.34375 4.4375 -2.207031 4.375 -2.125 C 4.320312 -2.039062 4.1875 -1.945312 3.96875 -1.84375 L 0.890625 -0.421875 C 0.710938 -0.335938 0.585938 -0.304688 0.515625 -0.328125 C 0.441406 -0.359375 0.382812 -0.460938 0.34375 -0.640625 L -4.21875 -15.65625 C -4.269531 -15.789062 -4.28125 -15.890625 -4.25 -15.953125 C -4.21875 -16.023438 -4.148438 -16.082031 -4.046875 -16.125 L -0.5625 -17.75 C -0.445312 -17.800781 -0.363281 -17.804688 -0.3125 -17.765625 C -0.269531 -17.734375 -0.238281 -17.648438 -0.21875 -17.515625 L 1.421875 -12.203125 L 1.453125 -12.078125 C 1.515625 -11.953125 1.628906 -11.925781 1.796875 -12 L 5.890625 -13.90625 C 6.054688 -13.976562 6.085938 -14.179688 5.984375 -14.515625 L 4.40625 -19.71875 C 4.363281 -19.832031 4.363281 -19.921875 4.40625 -19.984375 C 4.445312 -20.046875 4.515625 -20.101562 4.609375 -20.15625 L 8.09375 -21.765625 C 8.164062 -21.796875 8.222656 -21.796875 8.265625 -21.765625 C 8.316406 -21.742188 8.367188 -21.679688 8.421875 -21.578125 C 8.472656 -21.472656 8.507812 -21.382812 8.53125 -21.3125 L 13.015625 -6.484375 C 13.078125 -6.304688 13.09375 -6.1875 13.0625 -6.125 C 13.03125 -6.070312 12.914062 -6 12.71875 -5.90625 L 9.65625 -4.484375 C 9.476562 -4.398438 9.34375 -4.363281 9.25 -4.375 C 9.164062 -4.394531 9.09375 -4.472656 9.03125 -4.609375 C 9 -4.679688 8.972656 -4.742188 8.953125 -4.796875 L 7.203125 -10.578125 L 7.203125 -10.59375 C 7.148438 -10.6875 7.023438 -10.691406 6.828125 -10.609375 Z M 2.796875 -8.734375 "/></g></g><g clip-rule="nonzero" clip-path="url(#127dc67976)"><path style=" stroke:none;fill-rule:nonzero;fill:#000000;fill-opacity:1;" d="M 186.675781 83.617188 C 93.664062 83.617188 14.542969 172.390625 -2.417969 192.808594 C 14.542969 213.230469 93.664062 302 186.675781 302 C 279.6875 302 358.808594 213.230469 375.769531 192.808594 C 358.808594 172.390625 279.6875 83.617188 186.675781 83.617188 Z M 186.675781 295.175781 C 185 295.175781 183.328125 295.136719 181.652344 295.054688 C 179.980469 294.972656 178.3125 294.847656 176.644531 294.683594 C 174.976562 294.519531 173.316406 294.316406 171.660156 294.070312 C 170 293.824219 168.351562 293.535156 166.710938 293.210938 C 165.066406 292.882812 163.433594 292.515625 161.808594 292.109375 C 160.183594 291.703125 158.570312 291.253906 156.964844 290.769531 C 155.363281 290.28125 153.773438 289.757812 152.195312 289.191406 C 150.621094 288.628906 149.058594 288.027344 147.507812 287.382812 C 145.960938 286.742188 144.429688 286.066406 142.917969 285.347656 C 141.402344 284.632812 139.90625 283.878906 138.429688 283.089844 C 136.953125 282.300781 135.496094 281.472656 134.058594 280.613281 C 132.621094 279.75 131.207031 278.855469 129.816406 277.925781 C 128.421875 276.992188 127.054688 276.03125 125.707031 275.03125 C 124.363281 274.035156 123.042969 273.003906 121.746094 271.941406 C 120.453125 270.878906 119.183594 269.785156 117.945312 268.660156 C 116.703125 267.535156 115.492188 266.378906 114.304688 265.195312 C 113.121094 264.007812 111.96875 262.796875 110.84375 261.554688 C 109.71875 260.3125 108.625 259.046875 107.5625 257.75 C 106.5 256.457031 105.46875 255.136719 104.46875 253.789062 C 103.472656 252.445312 102.507812 251.074219 101.578125 249.683594 C 100.648438 248.289062 99.75 246.875 98.890625 245.4375 C 98.027344 244 97.203125 242.542969 96.414062 241.066406 C 95.625 239.585938 94.871094 238.089844 94.15625 236.578125 C 93.441406 235.0625 92.761719 233.53125 92.121094 231.984375 C 91.480469 230.4375 90.875 228.875 90.3125 227.296875 C 89.746094 225.71875 89.222656 224.128906 88.734375 222.523438 C 88.25 220.921875 87.804688 219.308594 87.398438 217.683594 C 86.988281 216.058594 86.621094 214.421875 86.296875 212.78125 C 85.96875 211.136719 85.683594 209.488281 85.4375 207.828125 C 85.191406 206.171875 84.984375 204.511719 84.820312 202.84375 C 84.65625 201.175781 84.535156 199.507812 84.453125 197.832031 C 84.371094 196.160156 84.328125 194.484375 84.328125 192.808594 C 84.328125 191.132812 84.371094 189.460938 84.453125 187.785156 C 84.535156 186.113281 84.65625 184.441406 84.820312 182.777344 C 84.984375 181.109375 85.191406 179.445312 85.4375 177.789062 C 85.683594 176.132812 85.96875 174.480469 86.296875 172.839844 C 86.621094 171.195312 86.988281 169.5625 87.398438 167.9375 C 87.804688 166.3125 88.25 164.695312 88.734375 163.09375 C 89.222656 161.492188 89.746094 159.902344 90.3125 158.324219 C 90.875 156.746094 91.480469 155.183594 92.121094 153.636719 C 92.761719 152.085938 93.441406 150.554688 94.15625 149.042969 C 94.871094 147.527344 95.625 146.03125 96.414062 144.554688 C 97.203125 143.078125 98.027344 141.621094 98.890625 140.183594 C 99.75 138.746094 100.648438 137.332031 101.578125 135.9375 C 102.507812 134.542969 103.472656 133.175781 104.46875 131.828125 C 105.46875 130.484375 106.5 129.164062 107.5625 127.867188 C 108.625 126.574219 109.71875 125.304688 110.84375 124.0625 C 111.96875 122.824219 113.121094 121.609375 114.304688 120.425781 C 115.492188 119.242188 116.703125 118.085938 117.945312 116.960938 C 119.183594 115.835938 120.453125 114.742188 121.746094 113.679688 C 123.042969 112.617188 124.363281 111.585938 125.707031 110.585938 C 127.054688 109.589844 128.421875 108.625 129.816406 107.695312 C 131.207031 106.765625 132.621094 105.867188 134.058594 105.007812 C 135.496094 104.144531 136.953125 103.320312 138.429688 102.53125 C 139.90625 101.738281 141.402344 100.988281 142.917969 100.269531 C 144.429688 99.554688 145.960938 98.875 147.507812 98.234375 C 149.058594 97.59375 150.621094 96.992188 152.195312 96.425781 C 153.773438 95.863281 155.363281 95.335938 156.964844 94.851562 C 158.570312 94.363281 160.183594 93.917969 161.808594 93.511719 C 163.433594 93.101562 165.066406 92.738281 166.710938 92.410156 C 168.351562 92.082031 170 91.796875 171.660156 91.550781 C 173.316406 91.304688 174.976562 91.101562 176.644531 90.933594 C 178.3125 90.769531 179.980469 90.648438 181.652344 90.566406 C 183.328125 90.484375 185 90.441406 186.675781 90.441406 C 188.351562 90.441406 190.023438 90.484375 191.699219 90.566406 C 193.371094 90.648438 195.039062 90.769531 196.707031 90.933594 C 198.375 91.101562 200.035156 91.304688 201.691406 91.550781 C 203.351562 91.796875 205 92.082031 206.644531 92.410156 C 208.285156 92.738281 209.917969 93.101562 211.542969 93.511719 C 213.167969 93.917969 214.78125 94.363281 216.386719 94.851562 C 217.988281 95.335938 219.578125 95.863281 221.15625 96.425781 C 222.734375 96.992188 224.292969 97.59375 225.84375 98.234375 C 227.390625 98.875 228.921875 99.554688 230.433594 100.269531 C 231.949219 100.988281 233.445312 101.738281 234.921875 102.53125 C 236.398438 103.320312 237.855469 104.144531 239.292969 105.007812 C 240.730469 105.867188 242.144531 106.765625 243.535156 107.695312 C 244.929688 108.625 246.296875 109.589844 247.644531 110.585938 C 248.988281 111.585938 250.308594 112.617188 251.605469 113.679688 C 252.898438 114.742188 254.167969 115.835938 255.40625 116.960938 C 256.648438 118.085938 257.863281 119.242188 259.046875 120.425781 C 260.230469 121.609375 261.386719 122.824219 262.507812 124.0625 C 263.632812 125.304688 264.726562 126.574219 265.789062 127.867188 C 266.851562 129.164062 267.882812 130.484375 268.882812 131.828125 C 269.878906 133.175781 270.84375 134.542969 271.773438 135.9375 C 272.703125 137.332031 273.601562 138.746094 274.460938 140.183594 C 275.324219 141.621094 276.148438 143.078125 276.9375 144.554688 C 277.726562 146.03125 278.480469 147.527344 279.195312 149.042969 C 279.914062 150.554688 280.589844 152.085938 281.230469 153.636719 C 281.871094 155.183594 282.476562 156.746094 283.039062 158.324219 C 283.605469 159.902344 284.128906 161.492188 284.617188 163.09375 C 285.101562 164.695312 285.546875 166.3125 285.957031 167.9375 C 286.363281 169.5625 286.730469 171.195312 287.054688 172.839844 C 287.382812 174.480469 287.667969 176.132812 287.914062 177.789062 C 288.160156 179.445312 288.367188 181.109375 288.53125 182.777344 C 288.695312 184.441406 288.816406 186.113281 288.898438 187.785156 C 288.980469 189.460938 289.023438 191.132812 289.023438 192.808594 C 289.019531 194.484375 288.976562 196.160156 288.894531 197.832031 C 288.808594 199.503906 288.683594 201.171875 288.519531 202.839844 C 288.351562 204.507812 288.148438 206.167969 287.898438 207.824219 C 287.652344 209.480469 287.363281 211.128906 287.035156 212.773438 C 286.707031 214.414062 286.339844 216.046875 285.933594 217.671875 C 285.523438 219.296875 285.078125 220.910156 284.589844 222.511719 C 284.101562 224.113281 283.574219 225.703125 283.011719 227.28125 C 282.445312 228.855469 281.84375 230.417969 281.199219 231.964844 C 280.558594 233.511719 279.878906 235.042969 279.164062 236.558594 C 278.445312 238.070312 277.691406 239.566406 276.902344 241.042969 C 276.113281 242.519531 275.289062 243.976562 274.425781 245.410156 C 273.566406 246.847656 272.667969 248.261719 271.738281 249.65625 C 270.808594 251.046875 269.84375 252.414062 268.847656 253.761719 C 267.847656 255.105469 266.816406 256.425781 265.753906 257.71875 C 264.691406 259.015625 263.597656 260.28125 262.476562 261.523438 C 261.351562 262.761719 260.195312 263.976562 259.011719 265.160156 C 257.828125 266.34375 256.617188 267.5 255.375 268.625 C 254.132812 269.75 252.867188 270.84375 251.574219 271.90625 C 250.277344 272.96875 248.960938 274 247.613281 274.996094 C 246.269531 275.992188 244.902344 276.957031 243.507812 277.890625 C 242.117188 278.820312 240.703125 279.714844 239.265625 280.578125 C 237.832031 281.4375 236.375 282.265625 234.898438 283.054688 C 233.421875 283.84375 231.925781 284.597656 230.414062 285.316406 C 228.902344 286.03125 227.371094 286.710938 225.824219 287.355469 C 224.277344 287.996094 222.714844 288.597656 221.140625 289.164062 C 219.5625 289.730469 217.976562 290.253906 216.371094 290.742188 C 214.769531 291.230469 213.15625 291.679688 211.535156 292.085938 C 209.910156 292.496094 208.277344 292.863281 206.632812 293.191406 C 204.992188 293.519531 203.34375 293.804688 201.6875 294.054688 C 200.03125 294.300781 198.371094 294.507812 196.703125 294.671875 C 195.039062 294.839844 193.367188 294.964844 191.695312 295.046875 C 190.023438 295.132812 188.351562 295.175781 186.675781 295.175781 Z M 186.675781 295.175781 "/></g><path style=" stroke:none;fill-rule:nonzero;fill:#000000;fill-opacity:1;" d="M 275.375 192.808594 C 275.375 194.261719 275.339844 195.710938 275.269531 197.164062 C 275.199219 198.613281 275.089844 200.0625 274.949219 201.503906 C 274.808594 202.949219 274.628906 204.390625 274.417969 205.828125 C 274.203125 207.261719 273.957031 208.695312 273.671875 210.117188 C 273.386719 211.542969 273.070312 212.957031 272.71875 214.367188 C 272.367188 215.773438 271.976562 217.171875 271.558594 218.5625 C 271.136719 219.953125 270.679688 221.332031 270.191406 222.699219 C 269.703125 224.066406 269.179688 225.417969 268.625 226.761719 C 268.070312 228.101562 267.480469 229.429688 266.859375 230.742188 C 266.238281 232.054688 265.585938 233.351562 264.902344 234.632812 C 264.21875 235.910156 263.503906 237.175781 262.757812 238.421875 C 262.011719 239.664062 261.234375 240.890625 260.425781 242.097656 C 259.621094 243.304688 258.785156 244.492188 257.921875 245.660156 C 257.054688 246.824219 256.164062 247.96875 255.242188 249.09375 C 254.320312 250.214844 253.375 251.3125 252.398438 252.390625 C 251.421875 253.464844 250.421875 254.515625 249.394531 255.542969 C 248.371094 256.570312 247.320312 257.570312 246.242188 258.546875 C 245.167969 259.519531 244.070312 260.46875 242.945312 261.390625 C 241.824219 262.3125 240.679688 263.203125 239.515625 264.070312 C 238.347656 264.933594 237.160156 265.769531 235.957031 266.574219 C 234.75 267.382812 233.523438 268.160156 232.277344 268.90625 C 231.03125 269.652344 229.769531 270.367188 228.488281 271.050781 C 227.207031 271.738281 225.914062 272.390625 224.601562 273.011719 C 223.289062 273.628906 221.960938 274.21875 220.621094 274.773438 C 219.277344 275.332031 217.925781 275.851562 216.558594 276.339844 C 215.191406 276.832031 213.8125 277.285156 212.425781 277.707031 C 211.035156 278.128906 209.636719 278.515625 208.226562 278.867188 C 206.820312 279.222656 205.402344 279.539062 203.980469 279.824219 C 202.558594 280.105469 201.125 280.355469 199.691406 280.566406 C 198.253906 280.78125 196.816406 280.957031 195.371094 281.101562 C 193.925781 281.242188 192.476562 281.351562 191.027344 281.421875 C 189.578125 281.492188 188.128906 281.527344 186.675781 281.527344 C 185.222656 281.527344 183.773438 281.492188 182.324219 281.421875 C 180.875 281.351562 179.425781 281.242188 177.980469 281.101562 C 176.535156 280.957031 175.097656 280.78125 173.660156 280.566406 C 172.226562 280.355469 170.796875 280.105469 169.371094 279.824219 C 167.949219 279.539062 166.53125 279.222656 165.125 278.867188 C 163.714844 278.515625 162.316406 278.128906 160.925781 277.707031 C 159.539062 277.285156 158.160156 276.832031 156.792969 276.339844 C 155.425781 275.851562 154.074219 275.332031 152.730469 274.773438 C 151.390625 274.21875 150.0625 273.628906 148.75 273.011719 C 147.4375 272.390625 146.144531 271.738281 144.863281 271.050781 C 143.582031 270.367188 142.320312 269.652344 141.074219 268.90625 C 139.828125 268.160156 138.605469 267.382812 137.398438 266.574219 C 136.191406 265.769531 135.003906 264.933594 133.835938 264.070312 C 132.671875 263.203125 131.527344 262.3125 130.40625 261.390625 C 129.28125 260.46875 128.183594 259.519531 127.109375 258.546875 C 126.03125 257.570312 124.980469 256.570312 123.957031 255.542969 C 122.929688 254.515625 121.929688 253.464844 120.953125 252.390625 C 119.976562 251.3125 119.03125 250.214844 118.109375 249.09375 C 117.1875 247.96875 116.296875 246.824219 115.429688 245.660156 C 114.566406 244.492188 113.730469 243.304688 112.925781 242.097656 C 112.117188 240.890625 111.339844 239.664062 110.59375 238.421875 C 109.847656 237.175781 109.132812 235.910156 108.449219 234.632812 C 107.765625 233.351562 107.113281 232.054688 106.492188 230.742188 C 105.871094 229.429688 105.28125 228.101562 104.726562 226.761719 C 104.171875 225.417969 103.648438 224.066406 103.160156 222.699219 C 102.671875 221.332031 102.214844 219.953125 101.792969 218.5625 C 101.375 217.171875 100.988281 215.773438 100.632812 214.367188 C 100.28125 212.957031 99.964844 211.542969 99.679688 210.117188 C 99.398438 208.695312 99.148438 207.261719 98.9375 205.828125 C 98.722656 204.390625 98.542969 202.949219 98.402344 201.503906 C 98.261719 200.0625 98.152344 198.613281 98.082031 197.164062 C 98.011719 195.710938 97.976562 194.261719 97.976562 192.808594 C 97.976562 191.359375 98.011719 189.90625 98.082031 188.457031 C 98.152344 187.007812 98.261719 185.558594 98.402344 184.113281 C 98.542969 182.667969 98.722656 181.226562 98.9375 179.792969 C 99.148438 178.355469 99.398438 176.925781 99.679688 175.5 C 99.964844 174.078125 100.28125 172.660156 100.632812 171.253906 C 100.988281 169.84375 101.375 168.445312 101.792969 167.054688 C 102.214844 165.667969 102.671875 164.289062 103.160156 162.921875 C 103.648438 161.554688 104.171875 160.199219 104.726562 158.859375 C 105.28125 157.515625 105.871094 156.191406 106.492188 154.878906 C 107.113281 153.566406 107.765625 152.269531 108.449219 150.988281 C 109.132812 149.707031 109.847656 148.445312 110.59375 147.199219 C 111.339844 145.953125 112.117188 144.726562 112.925781 143.519531 C 113.730469 142.3125 114.566406 141.125 115.429688 139.960938 C 116.296875 138.792969 117.1875 137.648438 118.109375 136.527344 C 119.03125 135.40625 119.976562 134.304688 120.953125 133.230469 C 121.929688 132.15625 122.929688 131.101562 123.957031 130.078125 C 124.980469 129.050781 126.03125 128.050781 127.109375 127.074219 C 128.183594 126.097656 129.28125 125.152344 130.40625 124.230469 C 131.527344 123.308594 132.671875 122.414062 133.835938 121.550781 C 135.003906 120.6875 136.191406 119.851562 137.398438 119.042969 C 138.605469 118.238281 139.828125 117.460938 141.074219 116.714844 C 142.320312 115.96875 143.582031 115.25 144.863281 114.566406 C 146.144531 113.882812 147.4375 113.230469 148.75 112.609375 C 150.0625 111.988281 151.390625 111.402344 152.730469 110.84375 C 154.074219 110.289062 155.425781 109.765625 156.792969 109.277344 C 158.160156 108.789062 159.539062 108.332031 160.925781 107.910156 C 162.316406 107.488281 163.714844 107.101562 165.125 106.75 C 166.53125 106.398438 167.949219 106.078125 169.371094 105.796875 C 170.796875 105.511719 172.226562 105.265625 173.660156 105.050781 C 175.097656 104.839844 176.535156 104.660156 177.980469 104.519531 C 179.425781 104.375 180.875 104.269531 182.324219 104.199219 C 183.773438 104.128906 185.222656 104.089844 186.675781 104.089844 C 188.128906 104.089844 189.578125 104.128906 191.027344 104.199219 C 192.476562 104.269531 193.925781 104.375 195.371094 104.519531 C 196.816406 104.660156 198.253906 104.839844 199.691406 105.050781 C 201.125 105.265625 202.558594 105.511719 203.980469 105.796875 C 205.402344 106.078125 206.820312 106.398438 208.226562 106.75 C 209.636719 107.101562 211.035156 107.488281 212.425781 107.910156 C 213.8125 108.332031 215.191406 108.789062 216.558594 109.277344 C 217.925781 109.765625 219.277344 110.289062 220.621094 110.84375 C 221.960938 111.402344 223.289062 111.988281 224.601562 112.609375 C 225.914062 113.230469 227.207031 113.882812 228.488281 114.566406 C 229.769531 115.25 231.03125 115.96875 232.277344 116.714844 C 233.523438 117.460938 234.75 118.238281 235.957031 119.042969 C 237.160156 119.851562 238.347656 120.6875 239.515625 121.550781 C 240.679688 122.414062 241.824219 123.308594 242.945312 124.230469 C 244.070312 125.152344 245.167969 126.097656 246.242188 127.074219 C 247.320312 128.050781 248.371094 129.050781 249.394531 130.078125 C 250.421875 131.101562 251.421875 132.15625 252.398438 133.230469 C 253.375 134.304688 254.320312 135.40625 255.242188 136.527344 C 256.164062 137.648438 257.054688 138.792969 257.921875 139.960938 C 258.785156 141.125 259.621094 142.3125 260.425781 143.519531 C 261.234375 144.726562 262.011719 145.953125 262.757812 147.199219 C 263.503906 148.445312 264.21875 149.707031 264.902344 150.988281 C 265.585938 152.269531 266.238281 153.566406 266.859375 154.878906 C 267.480469 156.191406 268.070312 157.515625 268.625 158.859375 C 269.179688 160.199219 269.703125 161.554688 270.191406 162.921875 C 270.679688 164.289062 271.136719 165.667969 271.558594 167.054688 C 271.976562 168.445312 272.367188 169.84375 272.71875 171.253906 C 273.070312 172.660156 273.386719 174.078125 273.671875 175.5 C 273.957031 176.925781 274.203125 178.355469 274.417969 179.792969 C 274.628906 181.226562 274.808594 182.667969 274.949219 184.113281 C 275.089844 185.558594 275.199219 187.007812 275.269531 188.457031 C 275.339844 189.90625 275.375 191.359375 275.375 192.808594 Z M 275.375 192.808594 "/><path style=" stroke:none;fill-rule:nonzero;fill:#56631a;fill-opacity:1;" d="M 134.609375 175.472656 C 134.609375 175.472656 127.964844 204.882812 158.519531 215.667969 L 162.144531 205.503906 C 162.144531 205.503906 129.628906 192.125 143.507812 164.285156 L 134.609375 175.472656 "/><path style=" stroke:none;fill-rule:nonzero;fill:#94a700;fill-opacity:1;" d="M 134.175781 186.027344 C 134.175781 186.027344 129.0625 149.335938 171.679688 141.890625 L 174.015625 155.25 C 174.015625 155.25 143.21875 155.363281 134.175781 186.027344 "/><path style=" stroke:none;fill-rule:nonzero;fill:#94a700;fill-opacity:1;" d="M 160.640625 138.101562 L 164.796875 161.886719 L 186.257812 146.546875 Z M 160.640625 138.101562 "/><path style=" stroke:none;fill-rule:nonzero;fill:#56631a;fill-opacity:1;" d="M 215.632812 145.964844 C 215.632812 145.964844 186.238281 139.234375 175.367188 169.757812 L 185.519531 173.414062 C 185.519531 173.414062 198.992188 140.933594 226.792969 154.894531 L 215.632812 145.964844 "/><path style=" stroke:none;fill-rule:nonzero;fill:#94a700;fill-opacity:1;" d="M 205.074219 145.503906 C 205.074219 145.503906 241.78125 140.492188 249.105469 183.132812 L 235.738281 185.425781 C 235.738281 185.425781 235.71875 154.632812 205.074219 145.503906 "/><path style=" stroke:none;fill-rule:nonzero;fill:#94a700;fill-opacity:1;" d="M 252.925781 172.101562 L 229.128906 176.191406 L 244.410156 197.699219 Z M 252.925781 172.101562 "/><path style=" stroke:none;fill-rule:nonzero;fill:#56631a;fill-opacity:1;" d="M 244.960938 225.867188 C 244.960938 225.867188 251.285156 196.382812 220.613281 185.933594 L 217.101562 196.136719 C 217.101562 196.136719 249.761719 209.160156 236.1875 237.148438 L 244.960938 225.867188 "/><path style=" stroke:none;fill-rule:nonzero;fill:#94a700;fill-opacity:1;" d="M 245.277344 215.304688 C 245.277344 215.304688 250.796875 251.941406 208.261719 259.851562 L 205.78125 246.519531 C 205.78125 246.519531 236.574219 246.070312 245.277344 215.304688 "/><g clip-rule="nonzero" clip-path="url(#e41676a939)"><path style=" stroke:none;fill-rule:nonzero;fill:#94a700;fill-opacity:1;" d="M 219.34375 263.519531 L 214.925781 239.78125 L 193.632812 255.355469 Z M 219.34375 263.519531 "/></g><path style=" stroke:none;fill-rule:nonzero;fill:#56631a;fill-opacity:1;" d="M 169.777344 257.945312 C 169.777344 257.945312 199.71875 261.535156 207.304688 230.03125 L 196.824219 227.46875 C 196.824219 227.46875 186.855469 261.191406 157.738281 250.242188 L 169.777344 257.945312 "/><path style=" stroke:none;fill-rule:nonzero;fill:#94a700;fill-opacity:1;" d="M 180.324219 257.289062 C 180.324219 257.289062 144.351562 266.148438 132.566406 224.519531 L 145.617188 220.824219 C 145.617188 220.824219 148.890625 251.445312 180.324219 257.289062 "/><path style=" stroke:none;fill-rule:nonzero;fill:#94a700;fill-opacity:1;" d="M 129.933594 235.886719 L 153.164062 229.3125 L 135.699219 209.539062 Z M 129.933594 235.886719 "/><g clip-rule="nonzero" clip-path="url(#582bf8d815)"><path style=" stroke:none;fill-rule:nonzero;fill:#56631a;fill-opacity:1;" d="M 237.320312 255.753906 C 237.320312 255.753906 248.898438 252.164062 250.574219 242.730469 C 250.574219 242.730469 246.519531 238.8125 249.519531 230.257812 C 252.523438 221.703125 257.480469 220.636719 254.792969 211.738281 C 254.792969 211.738281 275.769531 233.554688 254.785156 245.105469 C 254.785156 245.105469 262.261719 233.6875 257.742188 223.171875 C 257.742188 223.171875 259.746094 250.140625 237.707031 258.863281 L 237.320312 255.753906 "/></g><path style=" stroke:none;fill-rule:nonzero;fill:#56631a;fill-opacity:1;" d="M 137.683594 255.753906 C 137.683594 255.753906 126.105469 252.164062 124.429688 242.730469 C 124.429688 242.730469 128.484375 238.8125 125.484375 230.257812 C 122.484375 221.703125 117.523438 220.636719 120.210938 211.738281 C 120.210938 211.738281 99.234375 233.554688 120.222656 245.105469 C 120.222656 245.105469 112.742188 233.6875 117.261719 223.171875 C 117.261719 223.171875 115.257812 250.140625 137.296875 258.863281 L 137.683594 255.753906 "/><path style=" stroke:none;fill-rule:nonzero;fill:#94a700;fill-opacity:1;" d="M 249.105469 199.019531 C 249.105469 199.019531 250.078125 190.675781 255.085938 187.542969 C 260.09375 184.414062 264.113281 189.421875 259.257812 193.28125 C 256.429688 195.53125 252.511719 192.34375 249.105469 199.019531 "/><path style=" stroke:none;fill-rule:nonzero;fill:#94a700;fill-opacity:1;" d="M 134.015625 199.019531 C 134.015625 199.019531 133.042969 190.675781 128.035156 187.542969 C 123.027344 184.414062 119.007812 189.421875 123.863281 193.28125 C 126.695312 195.53125 130.609375 192.34375 134.015625 199.019531 "/><path style=" stroke:none;fill-rule:nonzero;fill:#94a700;fill-opacity:1;" d="M 193.632812 141.019531 C 193.632812 141.019531 198.042969 137.265625 205.074219 136.011719 C 205.074219 136.011719 205.222656 132.257812 212.316406 131.632812 C 219.410156 131.007812 224 139.140625 224 139.140625 C 224 139.140625 213.015625 144.78125 205.78125 138.101562 C 205.78125 138.101562 198.128906 139.558594 192.496094 144.148438 L 193.632812 141.019531 "/><g clip-rule="nonzero" clip-path="url(#c583efcaff)"><path style=" stroke:none;fill-rule:nonzero;fill:#56631a;fill-opacity:1;" d="M 182.589844 139.195312 C 179.167969 136.875 181.960938 127.304688 194.792969 125.894531 C 194.792969 125.894531 191.820312 145.453125 182.589844 139.195312 "/></g></g></svg>